# xmcd
#
# Track frame offsets:
#	150
#	16464
#	31345
#	47335
#	66330
#	87731
#	105121
#	126967
#
# Disc length: 1854 seconds
#
# Revision: 1
# Processed by: cddbd v1.5.2PL0 Copyright (c) Steve Scherf et al.
# Submitted via: audiograbber 1.83.01
#
DISCID=61073c08
DTITLE=Greg Copeland and the Soul Gang - Funk the Dumb Stuff
DYEAR=1900
DGENRE=soul
TTITLE0=Skin Thight
TTITLE1=I Smell Smoke
TTITLE2=Pass The Peas
TTITLE3=Ain't No Love
TTITLE4=Soul Mine
TTITLE5=Wash My Back
TTITLE6=Soul Madley
TTITLE7=Stop Messin' Around
EXTD=
EXTT0=
EXTT1=
EXTT2=
EXTT3=
EXTT4=
EXTT5=
EXTT6=
EXTT7=
PLAYORDER=
